<svg viewBox="0 0 24 24" xml:space="preserve" xmlns="http://www.w3.org/2000/svg"><path d="M23 6h-8V1c0-.6-.4-1-1-1H1C.4 0 0 .4 0 1v23h24V7c0-.6-.4-1-1-1zm-1 2v14h-7V8h7zm-9-6v20h-3v-5H5v5H2V2h11zM6 22v-4h3v4H6z" fill="#abb0b4" class="fill-000000"></path><path d="M7 4H4v3h3V4zM6 6H5V5h1v1zM7 8H4v3h3V8zm-1 2H5V9h1v1zM7 12H4v3h3v-3zm-1 2H5v-1h1v1zM11 4H8v3h3V4zm-1 2H9V5h1v1zM11 8H8v3h3V8zm-1 2H9V9h1v1zM11 12H8v3h3v-3zm-1 2H9v-1h1v1zM20 10h-3v3h3v-3zm-1 2h-1v-1h1v1zM20 14h-3v3h3v-3zm-1 2h-1v-1h1v1z" fill="#abb0b4" class="fill-000000"></path></svg>