<svg fill="none" viewBox="0 0 512 512" xmlns="http://www.w3.org/2000/svg"><g clip-path="url(#a)" stroke="#abb0b4" stroke-width="40" class="stroke-084482"><path d="m86.015 330.308-47.416-47.416 55.918-55.918 184.759 184.759-55.918 55.918-44.8-44.8m-92.543-92.543-51.013 51.013 45.78 45.781m5.233-96.794 92.543 92.543m0 0-51.013 51.013-46.762-46.762m-34.336 34.336 34.336-34.336M329.308 87.015l-47.416-47.416-55.918 55.918 92.379 92.38m10.955-100.882 51.013-51.013 45.781 45.78m-96.794 5.233 92.543 92.543m0 0 44.8 44.8-55.918 55.918-92.38-92.379m103.498-8.339 51.013-51.013-46.762-46.762m34.336-34.336-34.336 34.336M318.353 187.897 186.896 319.353"></path></g><defs><clipPath id="a"><path fill="#ffffff" d="M0 0h512v512H0z" class="fill-ffffff"></path></clipPath></defs></svg>