<svg viewBox="0 0 24 24" xml:space="preserve" xmlns="http://www.w3.org/2000/svg" enable-background="new 0 0 24 24"><path d="M21.1 4.2c-.8-.9-1.5-1.5-1.5-1.5C17.5 1 14.9 0 12 0 5.4 0 0 5.4 0 12s5.4 12 12 12 12-5.4 12-12c0-3-1.1-5.7-2.9-7.8zm-10.8-2c0 .1-.1.2-.1.3-2 4-3.6 6.4-7.3 5.5C4.2 4.9 7 2.7 10.3 2.2zM2 12c0-.7.1-1.5.2-2.2.8.2 1.5.3 2.1.3 4.1 0 6-3.7 7.6-6.8.2-.4.4-.9.7-1.3 2.8.2 5.2 1.5 6.9 3.4.7.8 1.4 1.9 1.4 3.2 0 1.2-.6 2.4-1.9 3.5-1 .9-2.9.9-4.9.9-2.3 0-4.8 0-6.6 1.4-1 .8-2.2 2.4-2.1 4.4 0 .2 0 .5.1.8C3.4 17.8 2 15.1 2 12zm10 10c-.9 0-1.8-.1-2.6-.4-1.3-.8-1.9-1.8-2-2.9-.1-1.2.6-2.2 1.3-2.8 1.2-1 3.3-1 5.3-1 2.3 0 4.6 0 6.3-1.4.7-.6 1.2-1.2 1.6-1.8v.1C22 17.5 17.5 22 12 22z" fill="#ffffff" class="fill-1e232d"></path></svg>